<?xml version="1.0" standalone="no"?>
<!DOCTYPE svg PUBLIC "-//W3C//DTD SVG 20010904//EN"
 "http://www.w3.org/TR/2001/REC-SVG-20010904/DTD/svg10.dtd">
<svg version="1.0" xmlns="http://www.w3.org/2000/svg"
 width="1024.000000pt" height="1024.000000pt" viewBox="0 0 1024.000000 1024.000000"
 preserveAspectRatio="xMidYMid meet">

<g transform="translate(0.000000,1024.000000) scale(0.100000,-0.100000)"
fill="#000000" stroke="none">
<path d="M4938 8060 c-144 -18 -233 -55 -295 -123 -65 -71 -82 -112 -158 -386
-64 -232 -139 -327 -333 -424 -59 -29 -131 -63 -161 -75 -40 -16 -52 -25 -44
-33 17 -17 120 -39 188 -40 33 0 82 -4 109 -7 l49 -7 -54 -36 c-125 -83 -257
-248 -299 -374 -21 -63 -22 -64 -76 -85 -30 -11 -59 -20 -63 -20 -11 0 -16 11
-56 135 l-33 99 25 31 c14 16 32 44 40 62 57 137 -85 275 -220 215 -92 -41
-127 -146 -79 -239 20 -39 82 -93 107 -93 10 0 85 -211 85 -237 0 -7 -33 -29
-72 -50 -85 -44 -196 -150 -246 -234 -164 -280 -94 -656 164 -871 44 -37 178
-108 203 -108 6 0 13 -17 16 -37 19 -112 44 -157 113 -210 81 -61 123 -68 439
-68 156 0 283 -3 283 -6 0 -3 -17 -13 -37 -23 -127 -60 -321 -233 -422 -376
-154 -219 -236 -485 -248 -812 l-6 -156 -116 -7 c-217 -12 -473 -36 -655 -61
-99 -13 -202 -27 -228 -31 -27 -3 -48 -9 -48 -14 0 -16 255 -19 2180 -25 1957
-6 2376 -1 2404 27 6 5 7 9 3 9 -4 0 -62 9 -129 20 -188 30 -361 47 -608 60
-124 6 -239 13 -256 16 l-31 4 -6 163 c-12 337 -77 562 -228 786 -111 167
-265 309 -421 390 l-77 40 337 3 c382 3 391 5 464 86 46 51 63 90 72 165 5 41
13 60 24 64 78 26 188 92 244 146 66 64 137 186 172 292 54 168 33 381 -53
531 -62 107 -185 214 -301 260 -22 9 -40 21 -40 28 0 6 16 59 36 119 34 102
38 108 72 123 56 23 91 63 108 121 49 170 -142 294 -270 175 -71 -67 -75 -176
-7 -261 19 -25 19 -25 -17 -128 -39 -113 -39 -113 -114 -88 -41 15 -46 20 -61
68 -29 90 -88 177 -188 278 -66 67 -106 99 -128 104 -42 9 -32 21 26 30 78 11
277 56 287 65 4 4 -3 11 -15 15 -118 36 -339 158 -401 222 -60 62 -74 94 -148
353 -34 118 -74 237 -88 264 -45 83 -130 137 -257 162 -86 17 -366 26 -457 14z
m400 -135 c101 -41 109 -129 17 -199 -78 -60 -191 -95 -365 -116 -133 -15
-209 -43 -317 -116 -52 -35 -96 -64 -98 -64 -2 0 3 16 11 35 8 20 12 40 9 45
-3 4 0 10 6 12 6 2 11 20 12 41 0 20 5 37 9 37 4 0 8 13 8 29 0 37 32 137 59
181 39 65 116 112 218 130 26 5 125 8 218 6 133 -3 179 -7 213 -21z m397 -760
c66 -18 238 -96 249 -114 9 -14 -82 -14 -254 0 -69 5 -294 10 -500 11 l-375 0
90 29 c107 34 256 67 351 78 127 15 374 12 439 -4z m-120 -245 c129 -12 241
-38 308 -71 57 -29 184 -161 230 -240 20 -35 37 -68 37 -74 0 -7 -267 -11
-813 -13 -446 -1 -927 -6 -1067 -10 -140 -5 -257 -7 -259 -5 -2 2 13 38 35 81
64 127 203 251 349 311 50 21 84 26 205 32 197 10 827 3 975 -11z m1034 -1
c61 -21 77 -102 28 -147 -33 -30 -62 -35 -96 -17 -35 18 -51 43 -51 80 0 47
20 69 86 95 1 0 15 -5 33 -11z m-2966 -27 c10 -10 20 -34 24 -54 13 -81 -96
-122 -151 -57 -30 35 -33 65 -10 97 31 45 99 51 137 14z m2509 -501 c86 -11
173 -39 193 -61 14 -15 16 -80 22 -496 5 -391 4 -484 -7 -504 -8 -14 -19 -50
-25 -80 -8 -42 -17 -58 -35 -68 -25 -13 -25 -13 7 -10 35 5 41 -7 37 -72 -3
-59 -6 -66 -14 -40 l-8 25 -2 -25 c-1 -14 -2 -28 -1 -32 0 -4 -7 -4 -16 -1
-11 4 -14 3 -9 -5 5 -8 -2 -12 -19 -12 -15 0 -24 4 -20 10 10 16 -2 12 -21 -7
-16 -16 -50 -19 -303 -24 -383 -9 -1872 -11 -1949 -3 -34 4 -59 10 -57 14 3 5
-3 6 -13 3 -10 -2 -25 3 -33 13 -12 16 -12 17 1 9 12 -6 13 -5 3 6 -7 7 -13
22 -13 34 0 16 -2 17 -10 5 -5 -8 -10 -12 -10 -8 0 3 -3 14 -7 24 -4 12 -3 15
5 10 8 -5 12 2 12 19 0 20 -4 26 -15 21 -12 -4 -14 4 -13 42 2 26 -1 142 -6
257 -12 302 -22 804 -16 845 8 52 60 77 191 90 202 21 2018 38 2151 21z m409
-133 c76 -40 173 -143 210 -222 47 -102 53 -189 24 -346 -14 -76 -86 -223
-130 -265 -59 -57 -128 -104 -110 -75 3 6 -1 7 -10 3 -12 -4 -13 -8 -4 -13 8
-6 1 -14 -22 -26 -30 -15 -33 -15 -20 -1 7 10 10 17 5 17 -5 0 -11 216 -13
480 -1 264 0 480 4 480 4 0 34 -14 66 -32z m-2884 -328 c4 -184 6 -392 3 -463
-3 -70 -2 -127 3 -127 4 0 7 -9 7 -20 0 -12 -7 -20 -17 -20 -16 0 -16 2 -3 11
12 9 11 10 -8 6 -12 -3 -20 -1 -16 4 3 5 -4 9 -15 9 -11 0 -23 4 -26 10 -3 5
0 7 8 4 8 -3 18 0 23 7 4 8 3 10 -4 5 -18 -11 -112 45 -112 67 0 6 10 2 22 -9
l22 -19 -20 27 c-10 14 -20 22 -22 17 -2 -5 -7 -9 -10 -9 -9 0 -33 54 -35 79
0 11 -5 18 -9 15 -4 -3 -4 -12 -1 -22 3 -9 3 -14 -1 -11 -4 4 -9 17 -11 30 -3
13 -11 29 -20 35 -8 6 -12 14 -8 17 3 4 1 7 -6 7 -7 0 -10 4 -7 9 3 5 -4 21
-15 35 -12 15 -19 35 -16 46 3 10 0 21 -6 23 -7 2 -13 43 -15 105 -4 82 0 114
17 170 25 82 86 179 144 226 55 45 130 87 139 78 4 -4 11 -158 15 -342z m1583
-1086 c330 -62 628 -287 791 -597 97 -186 137 -353 146 -604 l6 -173 -1127 0
-1126 0 0 121 c0 411 147 752 430 996 140 121 295 202 474 249 111 28 282 32
406 8z"/>
<path d="M5694 6209 c-53 -15 -127 -72 -156 -120 -40 -65 -55 -151 -39 -235
14 -79 30 -111 78 -165 54 -60 104 -82 198 -87 68 -4 89 -1 133 18 105 45 167
151 166 285 0 128 -48 231 -128 272 -74 38 -183 52 -252 32z m171 -114 c85
-35 129 -135 101 -228 -30 -99 -90 -147 -184 -147 -164 0 -237 249 -102 349
57 42 125 52 185 26z"/>
<path d="M4340 6173 c-64 -23 -142 -105 -165 -172 -36 -108 0 -268 78 -349 49
-51 102 -75 183 -80 103 -7 163 16 235 87 73 73 93 130 87 245 -7 118 -53 199
-146 253 -39 23 -59 28 -137 30 -64 2 -103 -2 -135 -14z m213 -118 c22 -10 51
-36 65 -58 23 -34 27 -52 27 -111 0 -62 -3 -75 -28 -108 -55 -71 -151 -95
-227 -56 -66 34 -103 93 -108 172 -4 53 -1 68 19 99 13 20 42 48 64 62 34 22
49 26 95 23 30 -3 72 -13 93 -23z"/>
<path d="M5295 5459 c-66 -4 -334 -7 -595 -8 -360 -1 -481 -4 -500 -14 -27
-13 -44 -54 -53 -124 -4 -36 -2 -43 11 -43 10 0 43 -28 75 -62 l58 -63 -5 73
c-6 71 -6 73 20 82 14 6 170 10 362 11 185 1 537 4 782 8 245 4 446 6 448 5 3
-2 -22 -11 -177 -67 -52 -19 -90 -37 -85 -40 14 -8 146 10 218 30 88 24 223
88 235 112 6 11 11 37 11 59 0 34 -4 41 -25 46 -30 8 -606 4 -780 -5z"/>
<path d="M4016 5305 c4 -8 11 -15 16 -15 6 0 5 6 -2 15 -7 8 -14 15 -16 15 -2
0 -1 -7 2 -15z"/>
<path d="M4925 5220 c-60 -4 -112 -8 -115 -9 -50 -20 475 -28 668 -11 56 5
110 14 120 19 20 12 -492 12 -673 1z"/>
<path d="M4160 5162 c0 -5 7 -15 15 -22 8 -7 15 -9 15 -6 0 4 -7 14 -15 22 -8
9 -15 11 -15 6z"/>
<path d="M6278 5163 c6 -2 18 -2 25 0 6 3 1 5 -13 5 -14 0 -19 -2 -12 -5z"/>
<path d="M6335 5150 c3 -5 11 -10 16 -10 6 0 7 5 4 10 -3 6 -11 10 -16 10 -6
0 -7 -4 -4 -10z"/>
<path d="M6278 5133 c7 -3 16 -2 19 1 4 3 -2 6 -13 5 -11 0 -14 -3 -6 -6z"/>
<path d="M6345 5110 c-3 -5 -1 -10 4 -10 6 0 11 5 11 10 0 6 -2 10 -4 10 -3 0
-8 -4 -11 -10z"/>
<path d="M4045 5100 c3 -5 8 -10 11 -10 2 0 4 5 4 10 0 6 -5 10 -11 10 -5 0
-7 -4 -4 -10z"/>
<path d="M6098 5093 c7 -3 16 -2 19 1 4 3 -2 6 -13 5 -11 0 -14 -3 -6 -6z"/>
<path d="M6331 5074 c0 -11 3 -14 6 -6 3 7 2 16 -1 19 -3 4 -6 -2 -5 -13z"/>
<path d="M6148 5003 c6 -2 18 -2 25 0 6 3 1 5 -13 5 -14 0 -19 -2 -12 -5z"/>
<path d="M3431 5654 c0 -11 3 -14 6 -6 3 7 2 16 -1 19 -3 4 -6 -2 -5 -13z"/>
<path d="M3490 5575 c0 -5 5 -17 10 -25 5 -8 10 -10 10 -5 0 6 -5 17 -10 25
-5 8 -10 11 -10 5z"/>
<path d="M5029 4347 c-91 -34 -174 -112 -216 -203 -69 -152 6 -343 166 -421
47 -24 69 -28 136 -28 97 0 151 22 225 91 74 70 104 138 105 244 0 73 -4 93
-27 141 -57 116 -154 179 -282 186 -44 2 -85 -2 -107 -10z m170 -127 c74 -37
119 -118 106 -188 -4 -20 -18 -55 -31 -78 -25 -43 -64 -84 -64 -68 0 5 -4 3
-9 -5 -5 -8 -32 -16 -63 -18 -56 -5 -113 10 -103 27 3 5 0 7 -8 4 -15 -5 -69
68 -65 89 1 7 -4 23 -11 36 -8 14 -11 40 -8 63 16 119 151 192 256 138z"/>
<path d="M5155 3930 c-4 -7 3 -8 22 -4 38 9 42 14 10 14 -14 0 -29 -5 -32 -10z"/>
<path d="M5158 3903 c7 -3 16 -2 19 1 4 3 -2 6 -13 5 -11 0 -14 -3 -6 -6z"/>
<path d="M5138 3873 c7 -3 16 -2 19 1 4 3 -2 6 -13 5 -11 0 -14 -3 -6 -6z"/>
<path d="M3396 4677 c-23 -23 -78 -94 -123 -157 -106 -147 -107 -154 -20 -276
84 -119 153 -189 196 -197 67 -14 109 -7 173 26 94 49 316 214 333 247 37 72
13 110 -127 200 -62 41 -157 102 -210 137 -80 52 -104 63 -139 63 -37 0 -48
-6 -83 -43z m154 -118 c19 -16 87 -59 150 -97 63 -38 116 -76 118 -85 2 -11
-16 -29 -55 -53 -55 -35 -163 -115 -191 -141 -17 -16 -92 -16 -112 0 -29 23
-72 86 -65 97 4 6 1 9 -7 8 -7 -2 -12 5 -12 14 1 10 -2 15 -7 13 -4 -3 -13 4
-19 16 -9 17 -7 30 13 72 14 29 32 68 41 87 9 20 30 52 46 72 34 41 44 41 100
-3z"/>
<path d="M6674 4692 c-66 -35 -253 -157 -315 -205 -59 -45 -83 -88 -75 -130
11 -55 54 -116 99 -138 23 -12 82 -48 130 -81 111 -75 166 -98 229 -98 87 0
122 28 240 190 66 91 85 154 58 198 -37 61 -210 280 -226 286 -34 13 -91 4
-140 -22z m142 -164 c32 -47 45 -73 37 -75 -7 -3 -13 -13 -13 -24 0 -14 7 -19
27 -19 14 0 23 -3 20 -6 -3 -4 0 -16 8 -26 16 -23 7 -49 -34 -108 -90 -127
-131 -139 -227 -62 -59 47 -125 94 -176 126 -53 32 -39 49 130 161 86 57 162
105 168 105 7 0 34 -32 60 -72z"/>
<path d="M4025 3096 c-167 -40 -298 -180 -341 -362 -20 -85 -13 -164 23 -254
33 -84 69 -135 136 -196 151 -138 355 -163 519 -65 62 38 138 121 138 151 -1
12 -83 71 -122 88 -5 2 -22 -8 -39 -23 -47 -39 -96 -56 -165 -56 -143 -1 -246
105 -247 255 0 157 100 266 245 266 72 0 115 -17 152 -60 l28 -33 31 18 c104
60 109 65 102 93 -17 76 -104 150 -206 177 -65 18 -185 18 -254 1z"/>
<path d="M2469 2768 c-2 -183 -2 -389 1 -458 l5 -125 115 0 115 0 3 121 3 121
137 10 c156 11 212 30 275 91 94 91 121 244 65 374 -27 64 -109 139 -183 169
-56 22 -76 23 -296 27 l-236 4 -4 -334z m398 121 c76 -16 113 -57 113 -123 0
-45 -15 -76 -48 -101 -21 -16 -46 -21 -119 -23 l-93 -4 0 131 0 131 50 0 c27
0 71 -5 97 -11z"/>
<path d="M3320 2640 l0 -461 118 3 117 3 3 458 2 457 -120 0 -120 0 0 -460z"/>
<path d="M4582 2998 l3 -103 223 -5 222 -5 -61 -75 c-102 -125 -420 -552 -437
-588 -14 -29 -14 -34 -2 -43 9 -5 175 -8 400 -6 l385 2 3 102 3 103 -196 2
-196 3 132 160 c253 309 286 351 322 410 27 45 37 71 37 103 l0 42 -420 0
-421 0 3 -102z"/>
<path d="M5510 2635 l0 -466 123 3 122 3 3 463 2 462 -125 0 -125 0 0 -465z"/>
<path d="M5930 2635 l0 -465 115 0 114 0 3 153 3 152 218 3 217 2 0 106 0 105
-212 -1 -213 -2 -3 101 -3 101 238 2 238 3 3 103 3 102 -361 0 -360 0 0 -465z"/>
<path d="M6721 3078 c7 -13 94 -147 193 -298 l181 -275 5 -155 5 -155 123 -3
122 -3 -6 129 c-6 108 -4 133 10 163 17 36 190 303 318 491 40 59 74 112 76
118 2 6 -46 10 -135 10 l-139 0 -58 -97 c-92 -153 -169 -277 -176 -286 -6 -7
-110 153 -211 326 l-34 57 -143 0 -143 0 12 -22z"/>
</g>
</svg>
